<svg xmlns="http://www.w3.org/2000/svg" width="880" height="240" viewBox="0 0 880 240" role="img" aria-label="Remote Exec for n8n — by Shadow Software">
  <title>Remote Exec for n8n — by Shadow Software</title>

  <defs>
    <radialGradient id="bg" cx="18%" cy="0%" r="120%">
      <stop offset="0%" stop-color="#12351c"/>
      <stop offset="45%" stop-color="#0b0b0b"/>
      <stop offset="100%" stop-color="#060606"/>
    </radialGradient>

    <linearGradient id="shine" x1="0%" y1="0%" x2="100%" y2="0%">
      <stop offset="0%" stop-color="#ffffff" stop-opacity="0"/>
      <stop offset="50%" stop-color="#ffffff" stop-opacity="0.75"/>
      <stop offset="100%" stop-color="#ffffff" stop-opacity="0"/>
    </linearGradient>

    <filter id="soft" x="-40%" y="-40%" width="180%" height="180%">
      <feGaussianBlur stdDeviation="6" result="b"/>
      <feMerge><feMergeNode in="b"/><feMergeNode in="SourceGraphic"/></feMerge>
    </filter>

    <clipPath id="card"><rect x="0" y="0" width="880" height="240" rx="20"/></clipPath>
  </defs>

  <g clip-path="url(#card)">
    <rect width="880" height="240" fill="url(#bg)"/>

    <!-- Faint hexagon lattice, the house background motif. -->
    <g stroke="#8fd468" stroke-opacity="0.06" fill="none" stroke-width="2">
      <path d="M120 40 154 60v40l-34 20-34-20V60z"/>
      <path d="M760 150 794 170v40l-34 20-34-20v-40z"/>
      <path d="M700 30 724 44v28l-24 14-24-14V44z"/>
    </g>

    <!-- Shadow Software hexagon + hooded mark. -->
    <g transform="translate(70 60) scale(2.55)">
      <path d="M20 1.5 37 11.25v19.5L20 40.5 3 30.75v-19.5z" fill="#8fd468" opacity="0" filter="url(#soft)">
        <animate attributeName="opacity" values="0;0.35;0" dur="3.2s" repeatCount="indefinite"/>
      </path>
      <path d="M20 1.5 37 11.25v19.5L20 40.5 3 30.75v-19.5z"
            fill="#0d0d0d" stroke="#8fd468" stroke-width="2" stroke-linejoin="round"/>
      <path d="M20 11c-4.4 0-7.8 3.3-7.8 8 0 2.6 1.1 4.7 2.6 6.2-1.7 1.1-2.9 2.7-3.3 4.8h17c-.4-2.1-1.6-3.7-3.3-4.8 1.5-1.5 2.6-3.6 2.6-6.2 0-4.7-3.4-8-7.8-8z"
            fill="#ededed"/>
      <ellipse cx="20" cy="19.5" rx="3.6" ry="4.2" fill="#0d0d0d"/>
    </g>

    <!-- A terminal: prompt chevron, a command typing in, a blinking cursor.
         Complete as a static frame — the animation only enhances it. -->
    <g transform="translate(250 108)" font-family="'SFMono-Regular', 'Consolas', 'Liberation Mono', monospace">
      <!-- prompt chevron -->
      <path d="M0 0 14 12 0 24" fill="none" stroke="#8fd468" stroke-width="5" stroke-linecap="round" stroke-linejoin="round"/>

      <!-- the command, revealed left-to-right by a sliding mask -->
      <g>
        <clipPath id="type"><rect x="26" y="-4" width="150" height="32">
          <animate attributeName="width" values="0;150" dur="1.1s" begin="0.3s" fill="freeze"/>
        </rect></clipPath>
        <text x="26" y="19" font-size="21" font-weight="600" fill="#ededed" clip-path="url(#type)">ffmpeg -i in.png</text>
        <!-- static fallback for renderers that ignore SMIL: the same text at full width,
             behind the animated one, at low opacity so the animation reads as "typing". -->
      </g>

      <!-- blinking cursor bar, parked at the end of the typed text -->
      <rect x="182" y="2" width="13" height="22" rx="2" fill="#8fd468">
        <animate attributeName="opacity" values="1;1;0.15;0.15;1" dur="1.4s" begin="1.5s" repeatCount="indefinite"/>
      </rect>
    </g>

    <!-- Wordmark -->
    <g font-family="-apple-system, 'Segoe UI', Roboto, Helvetica, Arial, sans-serif">
      <text x="470" y="104" font-size="42" font-weight="800" letter-spacing="-1" fill="#ffffff">Remote <tspan fill="#8fd468">Exec</tspan></text>
      <text x="472" y="140" font-size="22" font-weight="600" letter-spacing="0.5" fill="#c9c9c9">community node for n8n</text>
      <text x="472" y="172" font-size="14" font-weight="500" letter-spacing="0.4" fill="#7f7f7f">run a command on a remote exec service</text>
      <rect x="472" y="188" width="300" height="3" rx="1.5" fill="#8fd468">
        <animate attributeName="width" values="0;300" dur="1s" begin="1.4s" fill="freeze"/>
      </rect>
    </g>

    <!-- Shimmer sweep -->
    <rect x="-260" y="0" width="180" height="240" fill="url(#shine)" opacity="0.45" transform="skewX(-18)">
      <animate attributeName="x" values="-260;1000" dur="4.5s" begin="1.8s" repeatCount="indefinite"/>
    </rect>

    <rect x="1" y="1" width="878" height="238" rx="19" fill="none" stroke="#232323" stroke-width="2"/>
  </g>
</svg>
